<?xml version="1.0" encoding="utf-8"?>
<!-- Generator: Adobe Illustrator 24.1.0, SVG Export Plug-In . SVG Version: 6.00 Build 0)  -->
<svg version="1.1" xmlns="http://www.w3.org/2000/svg" xmlns:xlink="http://www.w3.org/1999/xlink" x="0px" y="0px"
	 viewBox="0 0 1414 343" style="enable-background:new 0 0 1414 343;" xml:space="preserve">
<style type="text/css">
	.st0{display:none;}
	.st1{fill:#FFFFFF;}
	.st2{display:inline;}
	.st3{display:inline;fill:#FFFFFF;}
	.st4{fill:url(#SVGID_1_);}
	.st5{fill:url(#SVGID_2_);}
	.st6{fill:url(#SVGID_3_);}
	.st7{fill:url(#SVGID_4_);}
	.st8{fill:url(#SVGID_5_);}
	.st9{fill:url(#SVGID_6_);}
	.st10{fill:url(#SVGID_7_);}
	.st11{fill:url(#SVGID_8_);}
	.st12{fill:url(#SVGID_9_);}
	.st13{fill:url(#SVGID_10_);}
	.st14{fill:url(#SVGID_11_);}
	.st15{fill:url(#SVGID_12_);}
	.st16{fill:url(#SVGID_13_);}
	.st17{fill:url(#SVGID_14_);}
	.st18{fill:url(#SVGID_15_);}
	.st19{fill:url(#SVGID_16_);}
	.st20{fill:url(#SVGID_17_);}
	.st21{fill:url(#SVGID_18_);}
	.st22{fill:url(#SVGID_19_);}
</style>
<g id="Layer_2">
	<rect x="-2" y="-1" class="st0" width="1689" height="343"/>
</g>
<g id="Logo_Ideavo">
	<g>
		<polygon class="st1" points="1174.71,91 1075.71,341 1000.71,341 901.71,91 976.71,91 1038.21,246.3 1099.71,91 		"/>
	</g>
	<g>
		<path class="st1" d="M819.03,91v16.72C800.65,97.09,779.3,91,756.53,91c-69.04,0-125,55.96-125,125s55.96,125,125,125
			c22.77,0,44.12-6.09,62.5-16.72V341h62.5V91H819.03z M756.53,266c-27.61,0-50-22.39-50-50s22.39-50,50-50s50,22.39,50,50
			S784.14,266,756.53,266z"/>
	</g>
	<g>
		<path class="st1" d="M521.28,253.5h-4.45c0.79-0.69,1.56-1.41,2.3-2.15L521.28,253.5z"/>
		<path class="st1" d="M450.73,178.5c-0.79,0.69-1.56,1.41-2.3,2.15l-2.15-2.15H450.73z"/>
		<g>
			<path class="st1" d="M519.13,251.35c-0.74,0.74-1.51,1.46-2.3,2.15h4.45L519.13,251.35z M448.43,180.65
				c0.74-0.74,1.51-1.46,2.3-2.15h-4.45L448.43,180.65z"/>
		</g>
		<g>
			<path class="st1" d="M604.91,185c-0.56-2.19-1.18-4.36-1.85-6.5c-9.45-30.08-29.97-55.27-56.78-70.78
				C527.9,97.09,506.55,91,483.78,91c-34.51,0-65.76,13.99-88.38,36.62c-14.06,14.04-24.79,31.44-30.89,50.88
				c-0.67,2.14-1.29,4.31-1.85,6.5c-2.54,9.91-3.88,20.3-3.88,31c0,10.7,1.34,21.09,3.88,31c0.56,2.19,1.17,4.36,1.86,6.5
				c15.91,50.71,63.29,87.5,119.26,87.5c22.77,0,44.12-6.09,62.5-16.72c9.48-5.48,18.18-12.18,25.88-19.9l-50.88-50.88h-4.45
				c-8.81,7.79-20.38,12.5-33.05,12.5c-12.68,0-24.25-4.72-33.06-12.5c-2.24-1.98-4.3-4.15-6.16-6.5h164.22v-31
				C608.78,205.3,607.44,194.91,604.91,185z M450.73,178.5c-0.79,0.69-1.56,1.41-2.3,2.15l-2.15-2.15H450.73
				c8.81-7.78,20.37-12.5,33.05-12.5c12.67,0,24.25,4.71,33.06,12.5H450.73z"/>
		</g>
		<line class="st1" x1="521.28" y1="253.5" x2="519.13" y2="251.35"/>
	</g>
	<g>
		<path class="st1" d="M1348.68,107.72C1330.3,97.09,1308.95,91,1286.18,91c-69.03,0-125,55.96-125,125s55.97,125,125,125
			c22.77,0,44.12-6.09,62.5-16.72c37.36-21.61,62.5-62.01,62.5-108.28C1411.18,169.73,1386.04,129.33,1348.68,107.72z M1286.18,266
			c-27.61,0-50-22.39-50-50s22.39-50,50-50c27.62,0,50,22.39,50,50S1313.8,266,1286.18,266z"/>
	</g>
	<path class="st1" d="M250.82,3.84v76.57c-11.19-2.88-22.92-4.41-35-4.41c-77.32,0-140,62.68-140,140v125h-75V216
		c0-118.74,96.26-215,215-215C227.74,1,239.43,1.97,250.82,3.84z"/>
	<path class="st1" d="M265.82,101.39c-4.85-2.11-9.86-3.93-15-5.42c-11.1-3.24-22.85-4.97-35-4.97c-69.04,0-125,55.96-125,125
		s55.96,125,125,125c12.15,0,23.9-1.73,35-4.97c5.14-1.49,10.15-3.31,15-5.42V341h75V216C340.82,164.74,309.97,120.68,265.82,101.39
		z M250.82,251.69c-9.02,8.85-21.38,14.31-35,14.31c-27.61,0-50-22.39-50-50c0-27.61,22.39-50,50-50c13.62,0,25.98,5.46,35,14.31
		c9.26,9.07,15,21.71,15,35.69C265.82,229.98,260.08,242.62,250.82,251.69z"/>
	<path class="st1" d="M340.82,41.05v111.83c-15.64-30.9-42.39-55.21-75-67.69V6.85C293.23,13.37,318.6,25.15,340.82,41.05z"/>
</g>
<g id="Logo_Ideavo_copy" class="st0">
	<g class="st2">
		<polygon class="st1" points="1268.71,91 1169.71,341 1094.71,341 995.71,91 1070.71,91 1132.21,246.3 1193.71,91 		"/>
	</g>
	<g class="st2">
		<path class="st1" d="M819.03,91v16.72C800.65,97.09,779.3,91,756.53,91c-69.04,0-125,55.96-125,125s55.96,125,125,125
			c22.77,0,44.12-6.09,62.5-16.72V341h62.5V91H819.03z M756.53,266c-27.61,0-50-22.39-50-50s22.39-50,50-50s50,22.39,50,50
			S784.14,266,756.53,266z"/>
	</g>
	<g class="st2">
		<path class="st1" d="M521.28,253.5h-4.45c0.79-0.69,1.56-1.41,2.3-2.15L521.28,253.5z"/>
		<path class="st1" d="M450.73,178.5c-0.79,0.69-1.56,1.41-2.3,2.15l-2.15-2.15H450.73z"/>
		<g>
			<path class="st1" d="M519.13,251.35c-0.74,0.74-1.51,1.46-2.3,2.15h4.45L519.13,251.35z M448.43,180.65
				c0.74-0.74,1.51-1.46,2.3-2.15h-4.45L448.43,180.65z"/>
		</g>
		<g>
			<path class="st1" d="M604.91,185c-0.56-2.19-1.18-4.36-1.85-6.5c-9.45-30.08-29.97-55.27-56.78-70.78
				C527.9,97.09,506.55,91,483.78,91c-34.51,0-65.76,13.99-88.38,36.62c-14.06,14.04-24.79,31.44-30.89,50.88
				c-0.67,2.14-1.29,4.31-1.85,6.5c-2.54,9.91-3.88,20.3-3.88,31c0,10.7,1.34,21.09,3.88,31c0.56,2.19,1.17,4.36,1.86,6.5
				c15.91,50.71,63.29,87.5,119.26,87.5c22.77,0,44.12-6.09,62.5-16.72c9.48-5.48,18.18-12.18,25.88-19.9l-50.88-50.88h-4.45
				c-8.81,7.79-20.38,12.5-33.05,12.5c-12.68,0-24.25-4.72-33.06-12.5c-2.24-1.98-4.3-4.15-6.16-6.5h164.22v-31
				C608.78,205.3,607.44,194.91,604.91,185z M450.73,178.5c-0.79,0.69-1.56,1.41-2.3,2.15l-2.15-2.15H450.73
				c8.81-7.78,20.37-12.5,33.05-12.5c12.67,0,24.25,4.71,33.06,12.5H450.73z"/>
		</g>
		<line class="st1" x1="521.28" y1="253.5" x2="519.13" y2="251.35"/>
	</g>
	<g class="st2">
		<path class="st1" d="M1442.68,107.72C1424.3,97.09,1402.95,91,1380.18,91c-69.03,0-125,55.96-125,125s55.97,125,125,125
			c22.77,0,44.12-6.09,62.5-16.72c37.36-21.61,62.5-62.01,62.5-108.28C1505.18,169.73,1480.04,129.33,1442.68,107.72z M1380.18,266
			c-27.61,0-50-22.39-50-50s22.39-50,50-50c27.62,0,50,22.39,50,50S1407.8,266,1380.18,266z"/>
	</g>
	<path class="st3" d="M250.82,3.84v76.57c-11.19-2.88-22.92-4.41-35-4.41c-77.32,0-140,62.68-140,140v125h-75V216
		c0-118.74,96.26-215,215-215C227.74,1,239.43,1.97,250.82,3.84z"/>
	<path class="st3" d="M265.82,101.39c-4.85-2.11-9.86-3.93-15-5.42c-11.1-3.24-22.85-4.97-35-4.97c-69.04,0-125,55.96-125,125
		s55.96,125,125,125c12.15,0,23.9-1.73,35-4.97c5.14-1.49,10.15-3.31,15-5.42V341h75V216C340.82,164.74,309.97,120.68,265.82,101.39
		z M250.82,251.69c-9.02,8.85-21.38,14.31-35,14.31c-27.61,0-50-22.39-50-50c0-27.61,22.39-50,50-50c13.62,0,25.98,5.46,35,14.31
		c9.26,9.07,15,21.71,15,35.69C265.82,229.98,260.08,242.62,250.82,251.69z"/>
	<path class="st3" d="M340.82,41.05v111.83c-15.64-30.9-42.39-55.21-75-67.69V6.85C293.23,13.37,318.6,25.15,340.82,41.05z"/>
	<circle class="st3" cx="958.53" cy="216" r="50"/>
</g>
<g id="Layer_3" class="st0">
	<g class="st2">
		<g>
			<linearGradient id="SVGID_1_" gradientUnits="userSpaceOnUse" x1="631.5265" y1="216" x2="881.5265" y2="216">
				<stop  offset="0" style="stop-color:#FFFFFF"/>
				<stop  offset="1" style="stop-color:#000000"/>
			</linearGradient>
			<path class="st4" d="M819.03,91v16.72C800.65,97.09,779.3,91,756.53,91c-69.04,0-125,55.96-125,125s55.96,125,125,125
				c22.77,0,44.12-6.09,62.5-16.72V341h62.5V91H819.03z M756.53,266c-27.61,0-50-22.39-50-50s22.39-50,50-50s50,22.39,50,50
				S784.14,266,756.53,266z"/>
		</g>
		<linearGradient id="SVGID_2_" gradientUnits="userSpaceOnUse" x1="358.7821" y1="216" x2="444.562" y2="216">
			<stop  offset="0" style="stop-color:#FFFFFF"/>
			<stop  offset="1" style="stop-color:#000000"/>
		</linearGradient>
		<path class="st5" d="M433.78,216c0,11.71,4.03,22.48,10.78,31h-81.9c-2.54-9.91-3.88-20.3-3.88-31s1.34-21.09,3.88-31h81.9
			C437.81,193.52,433.78,204.29,433.78,216z"/>
		<g>
			<linearGradient id="SVGID_3_" gradientUnits="userSpaceOnUse" x1="909.9102" y1="216" x2="1083.9102" y2="216">
				<stop  offset="0" style="stop-color:#FFFFFF"/>
				<stop  offset="1" style="stop-color:#000000"/>
			</linearGradient>
			<polygon class="st6" points="1083.91,341 1008.91,341 909.91,91 984.91,91 			"/>
			<linearGradient id="SVGID_4_" gradientUnits="userSpaceOnUse" x1="1008.9102" y1="216" x2="1182.9102" y2="216">
				<stop  offset="0" style="stop-color:#FFFFFF"/>
				<stop  offset="1" style="stop-color:#000000"/>
			</linearGradient>
			<polygon class="st7" points="1008.91,341 1083.91,341 1182.91,91 1107.91,91 			"/>
		</g>
		<g>
			<linearGradient id="SVGID_5_" gradientUnits="userSpaceOnUse" x1="516.832" y1="252.425" x2="521.282" y2="252.425">
				<stop  offset="0" style="stop-color:#FFFFFF"/>
				<stop  offset="1" style="stop-color:#000000"/>
			</linearGradient>
			<path class="st8" d="M519.13,251.35l2.15,2.15h-4.45C517.62,252.81,518.39,252.09,519.13,251.35z"/>
			<linearGradient id="SVGID_6_" gradientUnits="userSpaceOnUse" x1="358.7821" y1="216" x2="608.782" y2="216">
				<stop  offset="0" style="stop-color:#FFFFFF"/>
				<stop  offset="1" style="stop-color:#000000"/>
			</linearGradient>
			<path class="st9" d="M608.78,216v31H444.56c1.86,2.35,3.92,4.52,6.16,6.5h-86.2c-0.69-2.14-1.3-4.31-1.86-6.5
				c-2.54-9.91-3.88-20.3-3.88-31s1.34-21.09,3.88-31c0.56-2.19,1.18-4.36,1.85-6.5h238.55c0.67,2.14,1.29,4.31,1.85,6.5
				C607.44,194.91,608.78,205.3,608.78,216z"/>
			<g>
				<linearGradient id="SVGID_7_" gradientUnits="userSpaceOnUse" x1="358.7821" y1="216" x2="608.782" y2="216">
					<stop  offset="0" style="stop-color:#FFFFFF"/>
					<stop  offset="1" style="stop-color:#000000"/>
				</linearGradient>
				<path class="st10" d="M519.13,251.35c-0.74,0.74-1.51,1.46-2.3,2.15c-8.81,7.79-20.38,12.5-33.05,12.5
					c-12.68,0-24.25-4.72-33.06-12.5c-2.24-1.98-4.3-4.15-6.16-6.5c-6.75-8.52-10.78-19.29-10.78-31c0-11.71,4.03-22.48,10.78-31
					c1.21-1.52,2.5-2.98,3.87-4.35c0.74-0.74,1.51-1.46,2.3-2.15c8.81-7.78,20.37-12.5,33.05-12.5c12.67,0,24.25,4.71,33.06,12.5
					c2.24,1.97,4.31,4.15,6.17,6.5c6.74,8.52,10.77,19.29,10.77,31h75c0-10.7-1.34-21.09-3.87-31c-0.56-2.19-1.18-4.36-1.85-6.5
					c-9.45-30.08-29.97-55.27-56.78-70.78C527.9,97.09,506.55,91,483.78,91c-34.51,0-65.76,13.99-88.38,36.62
					c-14.06,14.04-24.79,31.44-30.89,50.88c-0.67,2.14-1.29,4.31-1.85,6.5c-2.54,9.91-3.88,20.3-3.88,31s1.34,21.09,3.88,31
					c0.56,2.19,1.17,4.36,1.86,6.5c15.91,50.71,63.29,87.5,119.26,87.5c22.77,0,44.12-6.09,62.5-16.72
					c9.48-5.48,18.18-12.18,25.88-19.9L519.13,251.35z"/>
			</g>
			<linearGradient id="SVGID_8_" gradientUnits="userSpaceOnUse" x1="523.012" y1="200.5" x2="608.782" y2="200.5">
				<stop  offset="0" style="stop-color:#FFFFFF"/>
				<stop  offset="1" style="stop-color:#000000"/>
			</linearGradient>
			<path class="st11" d="M608.78,216h-75c0-11.71-4.03-22.48-10.77-31h81.9C607.44,194.91,608.78,205.3,608.78,216z"/>
			<linearGradient id="SVGID_9_" gradientUnits="userSpaceOnUse" x1="395.4" y1="216" x2="572.16" y2="216">
				<stop  offset="0" style="stop-color:#FFFFFF"/>
				<stop  offset="1" style="stop-color:#000000"/>
			</linearGradient>
			<polyline class="st12" points="572.16,304.38 521.28,253.5 519.13,251.35 514.78,247 452.78,185 448.43,180.65 446.28,178.5 
				395.4,127.62 			"/>
			<linearGradient id="SVGID_10_" gradientUnits="userSpaceOnUse" x1="362.66" y1="247" x2="608.78" y2="247">
				<stop  offset="0" style="stop-color:#FFFFFF"/>
				<stop  offset="1" style="stop-color:#000000"/>
			</linearGradient>
			<polyline class="st13" points="362.66,247 433.78,247 433.79,247 439.94,247 444.56,247 483.78,247 514.78,247 527.62,247 
				533.77,247 533.78,247 608.77,247 608.78,247 			"/>
		</g>
		<g>
			<linearGradient id="SVGID_11_" gradientUnits="userSpaceOnUse" x1="1181.178" y1="216" x2="1431.178" y2="216">
				<stop  offset="0" style="stop-color:#FFFFFF"/>
				<stop  offset="1" style="stop-color:#000000"/>
			</linearGradient>
			<path class="st14" d="M1368.68,107.72C1350.3,97.09,1328.95,91,1306.18,91c-69.03,0-125,55.96-125,125s55.97,125,125,125
				c22.77,0,44.12-6.09,62.5-16.72c37.36-21.61,62.5-62.01,62.5-108.28C1431.18,169.73,1406.04,129.33,1368.68,107.72z M1306.18,266
				c-27.61,0-50-22.39-50-50s22.39-50,50-50c27.62,0,50,22.39,50,50S1333.8,266,1306.18,266z"/>
		</g>
		<linearGradient id="SVGID_12_" gradientUnits="userSpaceOnUse" x1="0.822" y1="171" x2="340.8221" y2="171">
			<stop  offset="0" style="stop-color:#FFFFFF"/>
			<stop  offset="1" style="stop-color:#000000"/>
		</linearGradient>
		<path class="st15" d="M265.82,6.85v78.34c32.61,12.48,59.36,36.79,75,67.69V41.05C318.6,25.15,293.23,13.37,265.82,6.85z
			 M265.82,101.39c-4.85-2.11-9.86-3.93-15-5.42c-11.1-3.24-22.85-4.97-35-4.97c-69.04,0-125,55.96-125,125s55.96,125,125,125
			c12.15,0,23.9-1.73,35-4.97c5.14-1.49,10.15-3.31,15-5.42V341h75V216C340.82,164.74,309.97,120.68,265.82,101.39z M250.82,251.69
			c-9.02,8.85-21.38,14.31-35,14.31c-27.61,0-50-22.39-50-50s22.39-50,50-50c13.62,0,25.98,5.46,35,14.31
			c9.26,9.07,15,21.71,15,35.69C265.82,229.98,260.08,242.62,250.82,251.69z M215.82,1c-118.74,0-215,96.26-215,215
			c0,46.62,14.84,89.78,40.05,125h34.95V216c0-77.32,62.68-140,140-140c12.08,0,23.81,1.53,35,4.41V3.84
			C239.43,1.97,227.74,1,215.82,1z"/>
		<linearGradient id="SVGID_13_" gradientUnits="userSpaceOnUse" x1="90.822" y1="216" x2="340.8221" y2="216">
			<stop  offset="0" style="stop-color:#FFFFFF"/>
			<stop  offset="1" style="stop-color:#000000"/>
		</linearGradient>
		<path class="st16" d="M265.82,101.39c-4.85-2.11-9.86-3.93-15-5.42c-11.1-3.24-22.85-4.97-35-4.97c-69.04,0-125,55.96-125,125
			s55.96,125,125,125c12.15,0,23.9-1.73,35-4.97c5.14-1.49,10.15-3.31,15-5.42V341h13.12c26.64-13.48,48.4-35.24,61.88-61.88V216
			C340.82,164.74,309.97,120.68,265.82,101.39z M250.82,251.69c-9.02,8.85-21.38,14.31-35,14.31c-27.61,0-50-22.39-50-50
			s22.39-50,50-50c13.62,0,25.98,5.46,35,14.31c9.26,9.07,15,21.71,15,35.69C265.82,229.98,260.08,242.62,250.82,251.69z"/>
		<linearGradient id="SVGID_14_" gradientUnits="userSpaceOnUse" x1="90.822" y1="216" x2="340.8221" y2="216">
			<stop  offset="0" style="stop-color:#FFFFFF"/>
			<stop  offset="1" style="stop-color:#000000"/>
		</linearGradient>
		<path class="st17" d="M265.82,101.39c-4.85-2.11-9.86-3.93-15-5.42c-11.1-3.24-22.85-4.97-35-4.97c-69.04,0-125,55.96-125,125
			s55.96,125,125,125c12.15,0,23.9-1.73,35-4.97c5.14-1.49,10.15-3.31,15-5.42c44.15-19.29,75-63.35,75-114.61
			S309.97,120.68,265.82,101.39z M250.82,251.69c-9.02,8.85-21.38,14.31-35,14.31c-27.61,0-50-22.39-50-50s22.39-50,50-50
			c13.62,0,25.98,5.46,35,14.31c9.26,9.07,15,21.71,15,35.69C265.82,229.98,260.08,242.62,250.82,251.69z"/>
		<linearGradient id="SVGID_15_" gradientUnits="userSpaceOnUse" x1="265.8221" y1="221.195" x2="340.8221" y2="221.195">
			<stop  offset="0" style="stop-color:#FFFFFF"/>
			<stop  offset="1" style="stop-color:#000000"/>
		</linearGradient>
		<path class="st18" d="M340.82,216v125h-75V101.39C309.97,120.68,340.82,164.74,340.82,216z"/>
		<linearGradient id="SVGID_16_" gradientUnits="userSpaceOnUse" x1="265.8221" y1="79.865" x2="340.8221" y2="79.865">
			<stop  offset="0" style="stop-color:#FFFFFF"/>
			<stop  offset="1" style="stop-color:#000000"/>
		</linearGradient>
		<path class="st19" d="M340.82,41.05v111.83c-15.64-30.9-42.39-55.21-75-67.69V6.85C293.23,13.37,318.6,25.15,340.82,41.05z"/>
		<linearGradient id="SVGID_17_" gradientUnits="userSpaceOnUse" x1="250.822" y1="155.985" x2="265.8221" y2="155.985">
			<stop  offset="0" style="stop-color:#FFFFFF"/>
			<stop  offset="1" style="stop-color:#000000"/>
		</linearGradient>
		<path class="st20" d="M250.82,95.97c5.14,1.49,10.15,3.31,15,5.42V216c0-13.98-5.74-26.62-15-35.69V95.97z"/>
		<linearGradient id="SVGID_18_" gradientUnits="userSpaceOnUse" x1="250.822" y1="276.015" x2="265.8221" y2="276.015">
			<stop  offset="0" style="stop-color:#FFFFFF"/>
			<stop  offset="1" style="stop-color:#000000"/>
		</linearGradient>
		<path class="st21" d="M250.82,251.69c9.26-9.07,15-21.71,15-35.69v114.61c-4.85,2.11-9.86,3.93-15,5.42V251.69z"/>
		<linearGradient id="SVGID_19_" gradientUnits="userSpaceOnUse" x1="0.822" y1="278.5" x2="75.822" y2="278.5">
			<stop  offset="0" style="stop-color:#FFFFFF"/>
			<stop  offset="1" style="stop-color:#000000"/>
		</linearGradient>
		<rect x="0.82" y="216" class="st22" width="75" height="125"/>
	</g>
</g>
</svg>
